<svg xmlns="http://www.w3.org/2000/svg" viewBox="6956 3484 100 100">
  <defs>
    <style>
      .cls-1 {
        fill: #acacac;
        fill-rule: evenodd;
      }
    </style>
  </defs>
  <g id="logo" transform="translate(6956 3484)">
    <g id="Github_1_">
      <path id="Github" class="cls-1" d="M50,0a50,50,0,1,0,50,50A50.147,50.147,0,0,0,50,0ZM62.5,92.813V78.125c0-4.687-1.562-7.812-3.437-9.375,11.25-1.25,22.813-5.625,22.813-24.687a19.776,19.776,0,0,0-5-13.438c.625-1.25,2.188-6.25-.625-13.125,0,0-4.062-1.25-13.75,5A41.591,41.591,0,0,0,50,20.938,54.763,54.763,0,0,0,37.5,22.5c-9.688-6.25-13.75-5-13.75-5a19.567,19.567,0,0,0-.625,13.437,19.21,19.21,0,0,0-5,13.438c0,19.062,11.563,23.438,22.813,24.688a9.346,9.346,0,0,0-3.125,6.563c-2.812,1.25-10,3.438-14.687-4.062a10.112,10.112,0,0,0-7.812-5s-5,0-.312,3.125c0,0,3.125,1.563,5.625,7.188,0,0,2.813,9.688,16.875,6.563V92.5A43.309,43.309,0,0,1,6.25,50.937,43.75,43.75,0,1,1,62.5,92.813Z"/>
    </g>
  </g>
</svg>
