<svg xmlns="http://www.w3.org/2000/svg" viewBox="6947 1939 118.004 160">
  <defs>
    <style>
      .cls-1 {
        fill: #5382a1;
      }

      .cls-2 {
        fill: #e76f00;
      }
    </style>
  </defs>
  <g id="Java_Logo" transform="translate(6932.445 1934.601)">
    <path id="Path_5" data-name="Path 5" class="cls-1" d="M92.538,291.324s-6.114,3.556,4.351,4.759c12.679,1.446,19.159,1.239,33.131-1.405a57.642,57.642,0,0,0,8.8,4.3C107.5,312.4,67.936,298.2,92.538,291.324" transform="translate(-39.978 -163.188)"/>
    <path id="Path_6" data-name="Path 6" class="cls-1" d="M82.449,250.7s-6.858,5.076,3.616,6.16c13.544,1.4,24.24,1.512,42.748-2.052a18.972,18.972,0,0,0,6.585,4.015c-37.87,11.074-80.05.873-52.949-8.122" transform="translate(-33.717 -140.086)"/>
    <path id="Path_7" data-name="Path 7" class="cls-2" d="M159.289,124c7.718,8.885-2.028,16.881-2.028,16.881s19.6-10.116,10.6-22.784c-8.406-11.814-14.851-17.683,20.044-37.922,0,0-54.775,13.68-28.613,43.825" transform="translate(-78.291 -43.099)"/>
    <path id="Path_8" data-name="Path 8" class="cls-1" d="M122.424,319.584s4.525,3.728-4.983,6.612c-18.079,5.477-75.248,7.131-91.129.218-5.709-2.484,5-5.93,8.365-6.653a21.718,21.718,0,0,1,5.519-.62c-6.349-4.473-41.037,8.782-17.62,12.578,63.861,10.357,116.413-4.664,99.848-12.135" transform="translate(0 -178.492)"/>
    <path id="Path_9" data-name="Path 9" class="cls-1" d="M72.446,208.583s-29.08,6.907-10.3,9.415c7.93,1.062,23.739.822,38.465-.412,12.035-1.015,24.119-3.174,24.119-3.174a51.05,51.05,0,0,0-7.314,3.914c-29.53,7.766-86.576,4.153-70.153-3.791,13.889-6.714,25.182-5.952,25.182-5.952" transform="translate(-16.946 -116.114)"/>
    <path id="Path_10" data-name="Path 10" class="cls-1" d="M229.666,235.737c30.019-15.6,16.139-30.589,6.452-28.57a22.468,22.468,0,0,0-3.433.922,5.47,5.47,0,0,1,2.565-1.979c19.165-6.738,33.9,19.872-6.187,30.412a2.611,2.611,0,0,0,.6-.786" transform="translate(-122.001 -114.11)"/>
    <path id="Path_11" data-name="Path 11" class="cls-2" d="M139.717,4.4s16.625,16.63-15.768,42.2c-25.976,20.514-5.923,32.21-.011,45.574-15.162-13.68-26.29-25.723-18.825-36.931,10.957-16.453,41.311-24.43,34.6-50.846" transform="translate(-50.15)"/>
    <path id="Path_12" data-name="Path 12" class="cls-1" d="M86.506,354.915c28.814,1.844,73.061-1.023,74.109-14.657,0,0-2.014,5.169-23.813,9.273-24.593,4.628-54.926,4.088-72.916,1.122,0,0,3.683,3.048,22.62,4.262" transform="translate(-28.057 -191.019)"/>
  </g>
</svg>
