<svg xmlns="http://www.w3.org/2000/svg" viewBox="7272 1939 160 160">
  <defs>
    <style>
      .cls-1 {
        fill: #f7df1e;
      }
    </style>
  </defs>
  <g id="javascript-js-seeklogo.com" transform="translate(7272 1939)">
    <path id="Path_13" data-name="Path 13" class="cls-1" d="M0,0H160V160H0Z"/>
    <path id="Path_14" data-name="Path 14" d="M67.312,177.781l12.244-7.41c2.362,4.188,4.511,7.732,9.665,7.732,4.941,0,8.056-1.932,8.056-9.45V117.529h15.036v51.336c0,15.573-9.129,22.662-22.447,22.662-12.028,0-19.01-6.229-22.554-13.748" transform="translate(-25.242 -44.073)"/>
    <path id="Path_15" data-name="Path 15" d="M152.381,175.654l12.243-7.088c3.223,5.263,7.412,9.129,14.822,9.129,6.231,0,10.2-3.115,10.2-7.411,0-5.155-4.081-6.981-10.955-9.988l-3.758-1.612c-10.848-4.618-18.044-10.417-18.044-22.661,0-11.278,8.592-19.87,22.018-19.87,9.559,0,16.432,3.33,21.372,12.029L188.575,135.7c-2.578-4.618-5.369-6.444-9.666-6.444-4.4,0-7.2,2.793-7.2,6.444,0,4.511,2.792,6.337,9.236,9.13l3.759,1.611c12.781,5.478,19.977,11.062,19.977,23.627,0,13.534-10.633,20.944-24.917,20.944-13.962,0-22.984-6.659-27.387-15.359" transform="translate(-57.143 -43.557)"/>
  </g>
</svg>
