<svg xmlns="http://www.w3.org/2000/svg" viewBox="7130.862 224.52 762.181 696.841">
  <defs>
    <style>
      .cls-1, .cls-2, .cls-3, .cls-4 {
        fill: none;
        stroke-miterlimit: 10;
      }

      .cls-1, .cls-2 {
        stroke: #bfbfbf;
      }

      .cls-1, .cls-3 {
        stroke-width: 17.003px;
      }

      .cls-2, .cls-4 {
        stroke-width: 22.67px;
      }

      .cls-3, .cls-4 {
        stroke: #fff;
      }
    </style>
  </defs>
  <g id="newlogowhite" transform="translate(7020.686 128.051)">
    <g id="Group_1" data-name="Group 1" transform="translate(121.531 119.574)">
      <line id="Line_15" data-name="Line 15" class="cls-1" x2="77.966" y2="68.22" transform="translate(289.239 265.891)"/>
      <line id="Line_16" data-name="Line 16" class="cls-1" x1="25.339" y2="138.39" transform="translate(505.594 146.993)"/>
      <line id="Line_17" data-name="Line 17" class="cls-1" x1="52.627" y1="48.729" transform="translate(591.356 521.23)"/>
      <line id="Line_18" data-name="Line 18" class="cls-1" y1="85.763" x2="249.491" transform="translate(94.324 478.349)"/>
      <path id="Path_16" data-name="Path 16" class="cls-2" d="M759.132,696.861l-115,42.881c-7.8,1.949-15.593,1.949-21.441-3.9l-93.559-79.915c-5.847-5.847-9.746-13.644-7.8-21.441l21.441-120.847c1.949-7.8,7.8-13.644,13.644-17.542l115-42.881c7.8-1.949,15.593-1.949,21.441,3.9l93.559,79.915c5.847,5.847,9.746,13.644,7.8,21.441L772.776,679.318C772.776,687.115,766.928,692.962,759.132,696.861Z" transform="translate(-177.521 -167.834)"/>
      <path id="Path_17" data-name="Path 17" class="cls-2" d="M452.891,379.86l-7.8,35.085q0,5.847-5.847,5.847l-33.136,11.695c-3.9,1.949-5.847,0-9.746-1.949l-27.288-23.39c-1.949-1.949-3.9-5.847-1.949-7.8l7.8-35.085q0-5.847,5.847-5.847l33.136-11.695c3.9-1.949,5.847,0,9.746,1.949l27.288,23.39C452.891,374.013,452.891,375.962,452.891,379.86Z" transform="translate(-155.856 -152.952)"/>
      <path id="Path_18" data-name="Path 18" class="cls-2" d="M795.982,248.983l-58.474,19.491c-3.9,1.949-9.746,0-13.644-1.949l-46.78-40.932c-3.9-3.9-5.847-7.8-3.9-13.644l11.695-60.424c1.949-5.847,3.9-9.746,9.746-9.746L753.1,122.288c3.9-1.949,9.746,0,13.644,1.949l46.78,40.932c3.9,3.9,5.847,7.8,3.9,13.644l-11.695,60.424A23.488,23.488,0,0,1,795.982,248.983Z" transform="translate(-198.778 -121.481)"/>
      <path id="Path_19" data-name="Path 19" class="cls-2" d="M225.6,774.374l-7.8,38.983a19.962,19.962,0,0,1-9.746,11.695l-37.034,11.695a15.159,15.159,0,0,1-15.593-3.9L126.194,805.56a15.159,15.159,0,0,1-3.9-15.593l7.8-38.983a19.962,19.962,0,0,1,9.746-11.695l37.034-11.695a15.159,15.159,0,0,1,15.593,3.9L221.7,758.78C223.651,764.628,225.6,770.475,225.6,774.374Z" transform="translate(-121.531 -206.364)"/>
      <path id="Path_20" data-name="Path 20" class="cls-2" d="M944.652,861.635,903.719,873.33c-3.9,1.949-9.746,0-11.695-1.949l-31.186-29.237c-3.9-3.9-3.9-7.8-3.9-11.695l9.746-42.881c1.949-3.9,3.9-7.8,9.746-9.746l40.932-11.695c3.9-1.949,9.746,0,11.695,1.949l31.186,29.237c3.9,3.9,3.9,7.8,3.9,11.695L954.4,851.889A23.488,23.488,0,0,1,944.652,861.635Z" transform="translate(-224.651 -211.761)"/>
    </g>
    <g id="Group_2" data-name="Group 2" transform="translate(123.48 107.879)">
      <line id="Line_19" data-name="Line 19" class="cls-3" x2="79.915" y2="70.169" transform="translate(289.238 267.841)"/>
      <line id="Line_20" data-name="Line 20" class="cls-3" x1="25.339" y2="138.39" transform="translate(505.594 148.943)"/>
      <line id="Line_21" data-name="Line 21" class="cls-3" x1="52.627" y1="46.78" transform="translate(591.356 525.128)"/>
      <line id="Line_22" data-name="Line 22" class="cls-3" y1="83.813" x2="247.542" transform="translate(96.273 482.247)"/>
      <path id="Path_21" data-name="Path 21" class="cls-4" d="M761.4,685.526l-115,42.881c-7.8,1.949-15.593,1.949-21.441-3.9L531.4,644.593c-5.847-5.847-9.746-13.644-7.8-21.441l21.441-120.847c1.949-7.8,7.8-13.644,13.644-17.542l115-42.881c7.8-1.949,15.593-1.949,21.441,3.9L788.687,525.7c5.847,5.847,9.746,13.644,7.8,21.441L775.043,667.983C775.043,675.78,769.2,681.627,761.4,685.526Z" transform="translate(-179.788 -154.55)"/>
      <path id="Path_22" data-name="Path 22" class="cls-4" d="M455.476,368.843l-7.8,35.085q0,5.847-5.847,5.847L408.7,421.47c-3.9,1.949-5.847,0-9.746-1.949L373.611,398.08c-1.949-1.949-3.9-5.847-1.949-7.8l7.8-35.085q0-5.847,5.847-5.847l33.136-11.695c3.9-1.949,5.847,0,9.746,1.949L455.476,363S457.425,366.894,455.476,368.843Z" transform="translate(-158.441 -139.986)"/>
      <path id="Path_23" data-name="Path 23" class="cls-4" d="M798.249,237.33l-58.474,19.491c-3.9,1.949-9.746,0-13.644-1.949l-46.779-42.881c-3.9-3.9-5.847-7.8-3.9-13.644l11.695-60.424c1.949-5.847,3.9-9.746,9.746-9.746l58.474-19.491c3.9-1.949,9.746,0,13.644,1.949l46.78,42.881c3.9,3.9,5.847,7.8,3.9,13.644l-11.695,60.424A23.488,23.488,0,0,1,798.249,237.33Z" transform="translate(-201.045 -107.879)"/>
      <path id="Path_24" data-name="Path 24" class="cls-4" d="M227.867,765.305l-7.8,38.983a19.963,19.963,0,0,1-9.746,11.695l-37.034,11.695a15.159,15.159,0,0,1-15.593-3.9l-29.237-27.288a15.159,15.159,0,0,1-3.9-15.593l7.8-38.983a19.962,19.962,0,0,1,9.746-11.695l37.034-11.695a15.159,15.159,0,0,1,15.593,3.9l29.237,27.288A15.159,15.159,0,0,1,227.867,765.305Z" transform="translate(-123.798 -193.398)"/>
      <path id="Path_25" data-name="Path 25" class="cls-4" d="M946.6,850.3l-40.932,11.695c-3.9,1.949-9.746,0-11.695-1.949l-33.136-29.237c-3.9-3.9-3.9-7.8-3.9-11.695l9.746-42.881c1.949-3.9,3.9-7.8,9.746-9.746l40.932-11.695c3.9-1.949,9.746,0,11.695,1.949l31.186,29.237c3.9,3.9,3.9,7.8,3.9,11.695L954.4,840.554C954.4,846.4,950.5,848.351,946.6,850.3Z" transform="translate(-226.6 -198.477)"/>
    </g>
  </g>
</svg>
