<?xml version="1.0" encoding="utf-8"?>
<!-- Generator: Adobe Illustrator 22.1.0, SVG Export Plug-In . SVG Version: 6.00 Build 0)  -->
<svg version="1.1" id="Layer_1" xmlns="http://www.w3.org/2000/svg" xmlns:xlink="http://www.w3.org/1999/xlink" x="0px" y="0px"
	 viewBox="0 0 50 50" style="enable-background:new 0 0 50 50;" xml:space="preserve">
<style type="text/css">
	.st0{fill:none;stroke:#BFBFBF;stroke-width:0.75;stroke-miterlimit:10;}
	.st1{fill:none;stroke:#BFBFBF;stroke-miterlimit:10;}
	.st2{fill:none;stroke:#FFFFFF;stroke-width:0.75;stroke-miterlimit:10;}
	.st3{fill:none;stroke:#FFFFFF;stroke-miterlimit:10;}
</style>
<g>
	<line class="st0" x1="20.2" y1="19" x2="24.2" y2="22.5"/>
	<line class="st0" x1="32.6" y1="12.9" x2="31.3" y2="20"/>
	<line class="st0" x1="38.4" y1="34.6" x2="35.7" y2="32.1"/>
	<line class="st0" x1="10.2" y1="34.3" x2="23" y2="29.9"/>
	<path class="st1" d="M35.2,32.5l-5.9,2.2c-0.4,0.1-0.8,0.1-1.1-0.2l-4.8-4.1c-0.3-0.3-0.5-0.7-0.4-1.1l1.1-6.2
		c0.1-0.4,0.4-0.7,0.7-0.9l5.9-2.2c0.4-0.1,0.8-0.1,1.1,0.2l4.8,4.1c0.3,0.3,0.5,0.7,0.4,1.1l-1.1,6.2C35.9,32,35.6,32.3,35.2,32.5z
		"/>
	<path class="st1" d="M20.6,17l-0.4,1.8c0,0.2-0.1,0.3-0.3,0.3l-1.7,0.6c-0.2,0.1-0.3,0-0.5-0.1l-1.4-1.2c-0.1-0.1-0.2-0.3-0.1-0.4
		l0.4-1.8c0-0.2,0.1-0.3,0.3-0.3l1.7-0.6c0.2-0.1,0.3,0,0.5,0.1l1.4,1.2C20.6,16.7,20.6,16.8,20.6,17z"/>
	<path class="st1" d="M36,11.9l-3,1c-0.2,0.1-0.5,0-0.7-0.1l-2.4-2.1c-0.2-0.2-0.3-0.4-0.2-0.7l0.6-3.1c0.1-0.3,0.2-0.5,0.5-0.5l3-1
		c0.2-0.1,0.5,0,0.7,0.1l2.4,2.1c0.2,0.2,0.3,0.4,0.2,0.7l-0.6,3.1C36.4,11.6,36.2,11.8,36,11.9z"/>
	<path class="st1" d="M10.7,34.5l-0.4,2c-0.1,0.3-0.3,0.5-0.5,0.6l-1.9,0.6c-0.3,0.1-0.6,0-0.8-0.2l-1.5-1.4
		c-0.2-0.2-0.3-0.5-0.2-0.8l0.4-2c0.1-0.3,0.3-0.5,0.5-0.6l1.9-0.6c0.3-0.1,0.6,0,0.8,0.2l1.5,1.4C10.6,34,10.7,34.3,10.7,34.5z"/>
	<path class="st1" d="M42.3,38.7l-2.1,0.6c-0.2,0.1-0.5,0-0.6-0.1l-1.6-1.5c-0.2-0.2-0.2-0.4-0.2-0.6l0.5-2.2
		c0.1-0.2,0.2-0.4,0.5-0.5l2.1-0.6c0.2-0.1,0.5,0,0.6,0.1l1.6,1.5c0.2,0.2,0.2,0.4,0.2,0.6l-0.5,2.2C42.7,38.4,42.5,38.6,42.3,38.7z
		"/>
</g>
<g>
	<line class="st2" x1="20.3" y1="18.5" x2="24.4" y2="22.1"/>
	<line class="st2" x1="32.7" y1="12.4" x2="31.4" y2="19.5"/>
	<line class="st2" x1="38.5" y1="34.1" x2="35.8" y2="31.7"/>
	<line class="st2" x1="10.4" y1="33.8" x2="23.1" y2="29.5"/>
	<path class="st3" d="M35.3,32l-5.9,2.2c-0.4,0.1-0.8,0.1-1.1-0.2l-4.8-4.1c-0.3-0.3-0.5-0.7-0.4-1.1l1.1-6.2
		c0.1-0.4,0.4-0.7,0.7-0.9l5.9-2.2c0.4-0.1,0.8-0.1,1.1,0.2l4.8,4.1c0.3,0.3,0.5,0.7,0.4,1.1l-1.1,6.2C36,31.5,35.7,31.8,35.3,32z"
		/>
	<path class="st3" d="M20.7,16.5l-0.4,1.8c0,0.2-0.1,0.3-0.3,0.3l-1.7,0.6c-0.2,0.1-0.3,0-0.5-0.1L16.5,18c-0.1-0.1-0.2-0.3-0.1-0.4
		l0.4-1.8c0-0.2,0.1-0.3,0.3-0.3l1.7-0.6c0.2-0.1,0.3,0,0.5,0.1l1.4,1.2C20.7,16.2,20.8,16.4,20.7,16.5z"/>
	<path class="st3" d="M36.1,11.4l-3,1c-0.2,0.1-0.5,0-0.7-0.1L30,10.1c-0.2-0.2-0.3-0.4-0.2-0.7l0.6-3.1c0.1-0.3,0.2-0.5,0.5-0.5
		l3-1c0.2-0.1,0.5,0,0.7,0.1L37,7.1c0.2,0.2,0.3,0.4,0.2,0.7l-0.6,3.1C36.5,11.1,36.3,11.3,36.1,11.4z"/>
	<path class="st3" d="M10.8,34.1l-0.4,2c-0.1,0.3-0.3,0.5-0.5,0.6l-1.9,0.6c-0.3,0.1-0.6,0-0.8-0.2l-1.5-1.4
		c-0.2-0.2-0.3-0.5-0.2-0.8l0.4-2c0.1-0.3,0.3-0.5,0.5-0.6l1.9-0.6c0.3-0.1,0.6,0,0.8,0.2l1.5,1.4C10.8,33.5,10.9,33.8,10.8,34.1z"
		/>
	<path class="st3" d="M42.4,38.2l-2.1,0.6c-0.2,0.1-0.5,0-0.6-0.1L38,37.2c-0.2-0.2-0.2-0.4-0.2-0.6l0.5-2.2
		c0.1-0.2,0.2-0.4,0.5-0.5l2.1-0.6c0.2-0.1,0.5,0,0.6,0.1l1.6,1.5c0.2,0.2,0.2,0.4,0.2,0.6l-0.5,2.2C42.8,38,42.6,38.1,42.4,38.2z"
		/>
</g>
</svg>
