<svg xmlns="http://www.w3.org/2000/svg" viewBox="6580 1939.027 160 160">
  <defs>
    <style>
      .cls-1 {
        fill: #f05138;
      }

      .cls-2 {
        fill: #fff;
      }
    </style>
  </defs>
  <g id="Swift_logo_color" transform="translate(6831.8 1595.027)">
    <path id="Path_3" data-name="Path 3" class="cls-1" d="M-91.8,388.31v-4.839a83.4,83.4,0,0,0-.907-10.586A33.773,33.773,0,0,0-96.03,362.9a31.37,31.37,0,0,0-6.195-8.469,36.866,36.866,0,0,0-8.461-6.2,33.7,33.7,0,0,0-9.972-3.327A61.125,61.125,0,0,0-131.234,344h-81.133a13.812,13.812,0,0,0-2.568.151,69.041,69.041,0,0,0-7.856.756,43.042,43.042,0,0,0-7.554,2.117c-.755.3-1.662.756-2.417,1.059a38.888,38.888,0,0,0-6.648,4.386c-.6.6-1.36,1.21-1.964,1.815a36.9,36.9,0,0,0-6.195,8.469,33.773,33.773,0,0,0-3.324,9.981,81.1,81.1,0,0,0-.907,10.586v81.21a83.405,83.405,0,0,0,.907,10.586,33.774,33.774,0,0,0,3.324,9.981,31.371,31.371,0,0,0,6.195,8.469,36.865,36.865,0,0,0,8.461,6.2,33.7,33.7,0,0,0,9.972,3.327,61.119,61.119,0,0,0,10.576.907h81.133a83.164,83.164,0,0,0,10.576-.907,33.7,33.7,0,0,0,9.972-3.327,31.343,31.343,0,0,0,8.461-6.2A36.9,36.9,0,0,0-96.03,485.1a33.773,33.773,0,0,0,3.324-9.981,61.294,61.294,0,0,0,.907-10.586V388.31Z" transform="translate(0 0)"/>
    <path id="Path_4" data-name="Path 4" class="cls-2" d="M-130.452,435.219-130,433.4c6.648-26.465-9.518-57.921-37.016-74.4,12.087,16.333,17.375,36.144,12.691,53.384-.453,1.512-.907,3.025-1.511,4.537a11.448,11.448,0,0,0-2.417-1.361s-27.347-16.938-56.959-46.73c-.755-.756,15.864,23.743,34.6,43.554-8.914-4.991-33.541-22.987-49.254-37.2a79.249,79.249,0,0,0,6.648,9.225c12.993,16.635,30.066,37.051,50.463,52.779-14.353,8.771-34.6,9.527-54.693,0a81.835,81.835,0,0,1-14.051-8.318,84.163,84.163,0,0,0,37.62,32.363c19.037,8.166,38.074,7.713,52.125.151h0a.148.148,0,0,0,.151-.151c.6-.3,1.209-.756,1.813-1.059,6.8-3.478,20.094-6.957,27.347,6.957,2.115,3.176,5.892-14.971-8.008-31.909Z" transform="translate(5.262 7.684)"/>
  </g>
</svg>
